<svg width="188" height="60" viewBox="0 0 188 60" fill="none" xmlns="http://www.w3.org/2000/svg">
<path fill-rule="evenodd" clip-rule="evenodd" d="M8.81138 47.327L21.5706 41.4047L34.3297 47.327C38.3066 49.1729 42.8558 46.269 42.8558 41.8847L42.8558 18.1153C42.8558 13.731 38.3066 10.8271 34.3297 12.673L21.5706 18.5953L8.81139 12.673C4.83455 10.8271 0.285282 13.731 0.285281 18.1153L0.285278 41.8847C0.285278 46.269 4.83454 49.1729 8.81138 47.327ZM22 36.7605C25.3137 36.7605 28 34.0742 28 30.7605C28 27.4468 25.3137 24.7605 22 24.7605C18.6863 24.7605 16 27.4468 16 30.7605C16 34.0742 18.6863 36.7605 22 36.7605Z" fill="#00FFFF"/>
<path d="M65.1358 44V18.24H75.9358C79.8025 18.24 82.7092 19.24 84.6558 21.24C86.6292 23.2133 87.6158 26.5467 87.6158 31.24C87.6158 35.6667 86.6425 38.9067 84.6958 40.96C82.7758 42.9867 79.8558 44 75.9358 44H65.1358ZM70.5358 39.84H75.1758C76.6958 39.84 77.9758 39.6133 79.0158 39.16C80.0558 38.68 80.8292 37.8267 81.3358 36.6C81.8692 35.3467 82.1358 33.56 82.1358 31.24C82.1358 28.92 81.8958 27.1467 81.4158 25.92C80.9358 24.6933 80.1892 23.8533 79.1758 23.4C78.1625 22.9467 76.8292 22.72 75.1758 22.72H70.5358V39.84ZM101.266 44.4C97.9858 44.4 95.3858 43.5867 93.4658 41.96C91.5458 40.3067 90.5858 37.8133 90.5858 34.48C90.5858 31.4667 91.3858 29.08 92.9858 27.32C94.6125 25.5333 97.0258 24.64 100.226 24.64C103.159 24.64 105.399 25.4133 106.946 26.96C108.519 28.48 109.306 30.48 109.306 32.96V36.4H95.5858C95.8792 37.92 96.5725 38.96 97.6658 39.52C98.7858 40.08 100.359 40.36 102.386 40.36C103.399 40.36 104.426 40.2667 105.466 40.08C106.533 39.8933 107.439 39.6533 108.186 39.36V43.2C107.306 43.6 106.279 43.8933 105.106 44.08C103.933 44.2933 102.653 44.4 101.266 44.4ZM95.5858 33.08H104.586V32.04C104.586 30.9467 104.266 30.0933 103.626 29.48C102.986 28.84 101.906 28.52 100.386 28.52C98.5992 28.52 97.3458 28.88 96.6258 29.6C95.9325 30.32 95.5858 31.48 95.5858 33.08ZM110.029 44L117.309 34.36L110.309 25.04H116.149L120.229 30.56L124.309 25.04H130.149L123.189 34.36L130.429 44H124.549L120.229 38.2L115.909 44H110.029ZM133.886 44V25.04H138.886L139.086 26.88C139.993 26.1867 140.979 25.64 142.046 25.24C143.139 24.84 144.313 24.64 145.566 24.64C146.899 24.64 147.926 24.84 148.646 25.24C149.393 25.64 149.966 26.2133 150.366 26.96C151.246 26.2667 152.246 25.7067 153.366 25.28C154.513 24.8533 155.859 24.64 157.406 24.64C159.593 24.64 161.206 25.2133 162.246 26.36C163.286 27.48 163.806 29.2 163.806 31.52V44H158.486V32.12C158.486 30.8667 158.219 29.9733 157.686 29.44C157.153 28.88 156.299 28.6 155.126 28.6C153.526 28.6 152.193 29.1733 151.126 30.32C151.259 30.7733 151.326 31.32 151.326 31.96V44H146.286V32.12C146.286 30.9467 146.086 30.0667 145.686 29.48C145.286 28.8933 144.513 28.6 143.366 28.6C142.566 28.6 141.806 28.8133 141.086 29.24C140.393 29.64 139.766 30.1067 139.206 30.64V44H133.886ZM177.477 44.4C174.197 44.4 171.597 43.5867 169.677 41.96C167.757 40.3067 166.797 37.8133 166.797 34.48C166.797 31.4667 167.597 29.08 169.197 27.32C170.823 25.5333 173.237 24.64 176.437 24.64C179.37 24.64 181.61 25.4133 183.157 26.96C184.73 28.48 185.517 30.48 185.517 32.96V36.4H171.797C172.09 37.92 172.783 38.96 173.877 39.52C174.997 40.08 176.57 40.36 178.597 40.36C179.61 40.36 180.637 40.2667 181.677 40.08C182.743 39.8933 183.65 39.6533 184.397 39.36V43.2C183.517 43.6 182.49 43.8933 181.317 44.08C180.143 44.2933 178.863 44.4 177.477 44.4ZM171.797 33.08H180.797V32.04C180.797 30.9467 180.477 30.0933 179.837 29.48C179.197 28.84 178.117 28.52 176.597 28.52C174.81 28.52 173.557 28.88 172.837 29.6C172.143 30.32 171.797 31.48 171.797 33.08Z" fill="white"/>
</svg>
